<svg id="ekbLNsojJ501" xmlns="http://www.w3.org/2000/svg" xmlns:xlink="http://www.w3.org/1999/xlink" viewBox="0 0 300 300" shape-rendering="geometricPrecision" text-rendering="geometricPrecision" project-id="dc6b4122067b4f0aa3d5c7ceed5483e5" export-id="4cd625f47d5e4adca12c85475c276b31" cached="false"><g transform="matrix(.707107 0.707107-.707107 0.707107 81.347848-149.205532)"><rect width="100" height="100" rx="0" ry="0" transform="translate(217.09674 26.18787)" fill="#fff" stroke="#000" stroke-width="3" stroke-linejoin="round"/><path d="M8.929507,6.26509c1.959795,2.220444,3.150766,5.139377,3.150766,8.335252s-1.190971,6.114819-3.150766,8.335252c1.61573,1.101648,3.567208,1.745021,5.670835,1.745021s4.055168-.643373,5.670783-1.745021c-1.959731-2.220433-3.150715-5.139428-3.150715-8.335252s1.190984-6.114808,3.150715-8.335252c-1.615615-1.101711-3.567156-1.745022-5.670783-1.745022s-4.055105.643311-5.670835,1.745022Zm13.23104,1.667504c-1.569499,1.77787-2.520069,4.111189-2.520069,6.667748s.95057,4.88994,2.520069,6.667722c1.569498-1.777782,2.520068-4.111113,2.520068-6.667722s-.95057-4.889878-2.520068-6.667748ZM7.040137,21.268064c1.569498-1.777782,2.520068-4.111113,2.520068-6.667722s-.950557-4.889878-2.520068-6.667748c-1.569511,1.77787-2.520069,4.111189-2.520069,6.667748s.950558,4.88994,2.520069,6.667722ZM6.199807,5.20874C8.428203,3.214257,11.373974,2,14.600342,2s6.172151,1.214257,8.400521,3.20874c2.575762,2.305396,4.19982,5.659683,4.19982,9.391602s-1.624058,7.08618-4.19982,9.391664c-2.22837,1.994382-5.174204,3.208677-8.400521,3.208677s-6.172139-1.214295-8.400535-3.208677C3.623995,21.686522,2,18.332311,2,14.600342s1.623995-7.086206,4.199807-9.391602Z" transform="matrix(3.769739 0 0 3.769739 212.057263 21.148393)" clip-rule="evenodd" fill="#e80404" fill-rule="evenodd"/></g><g transform="matrix(.707107-.707107 0.707107 0.707107-32.537456 58.161663)"><rect width="100" height="100" rx="0" ry="0" transform="translate(8.919664 55.407224)" fill="#fff" stroke="#000" stroke-width="3" stroke-linejoin="round"/><g transform="matrix(4.577991 0 0 4.577991 3.98084 50.034725)"><path d="M7.1709,9.33522c.12347-.24709.58588-.58525,1.3291-.58525s1.20562.33816,1.3291.58525c.1851.37053.6356.5208,1.0061.33565s.5209-.63562.3357-1.00615C10.7121,7.74662,9.60349,7.24997,8.5,7.24997s-2.21213.49665-2.6709,1.41475c-.18516.37053-.03488.821.33565,1.00615s.821.03488,1.00615-.33565Z" fill="#7fe870"/><path d="M15.5,8.74997c-.7432,0-1.2056.33816-1.3291.58525-.1852.37053-.6356.5208-1.0062.33565s-.5208-.63562-.3356-1.00615c.4588-.9181,1.5674-1.41475,2.6709-1.41475s2.2121.49665,2.6709,1.41475c.1852.37053.0349.821-.3357,1.00615s-.821.03488-1.0061-.33565c-.1235-.24709-.5859-.58525-1.3291-.58525Z" fill="#7fe870"/><path d="M8.83532,2.21219l-1.11057-.1851c-1.03319-.17222-1.88748-.31463-2.56976-.33112-.71557-.01728-1.379.09773-1.93252.56663-.55339.46879-.77599,1.1039-.87661,1.81225-.09591.67524-.09589,1.54062-.09586,2.58704L2.25,12c0,5.9642,4.62373,8.8143,7.35498,9.9762l.02663.0113c.3402.1448.65879.2803,1.02459.3715.3856.0961.7956.1374,1.3438.1374s.9582-.0413,1.3438-.1374c.3658-.0912.6844-.2267,1.0246-.3715l.0266-.0113C17.1263,20.8143,21.75,17.9642,21.75,12v-5.33808c0-1.04644.0001-1.91182-.0959-2.58707-.1006-.70835-.3232-1.34346-.8766-1.81225-.5535-.4689-1.2169-.58391-1.9325-.56663-.6823.01649-1.5366.1589-2.5697.33112l-1.1106.1851c-1.6635.27725-2.4133.39986-3.1647.39986s-1.5012-.12261-3.16468-.39986ZM4.19203,3.40713c.15374-.13023.38444-.2247.92673-.21159.56324.0136,1.3119.13657,2.41554.32051l1.12796.18799C10.2329,3.96585,11.11,4.11205,12,4.11205s1.7671-.1462,3.3377-.40801l1.128-.188c1.1036-.18393,1.8523-.3069,2.4156-.3205.5422-.01311.7729.08136.9267.21159.1538.13034.2849.34227.3611.87867.0791.55728.0809,1.31518.0809,2.43307v5.28113c0,5.0165-3.8542,7.495-6.4421,8.5959-.3712.1579-.5867.2478-.8269.3076-.2299.0573-.5099.0929-.981.0929s-.7511-.0356-.981-.0929c-.2402-.0598-.4557-.1497-.8269-.3076C7.6042,19.495,3.75,17.0165,3.75,12v-5.28113c0-1.11789.0018-1.87579.08096-2.43307.07619-.5364.20722-.74833.36107-.87867Z" clip-rule="evenodd" fill="#7fe971" fill-rule="evenodd"/><path d="M7.9569,13.4827c-.28567.3-.27141.7772.02854,1.0629l.03033.0276c.01544.0137.03536.0307.05985.0507.04899.04.11627.0917.20258.1509.17272.1184.4213.2667.75125.4118.66247.2912,1.64015.5634,2.97055.5634s2.3081-.2722,2.9706-.5634c.3299-.1451.5785-.2934.7512-.4118.0863-.0592.1536-.1109.2026-.1509.0245-.02.0444-.037.0598-.0507l.0199-.0178.0074-.0069.0031-.0029.0014-.0013.0012-.0012c.3-.2857.3116-.7604.0259-1.0604-.2831-.2972-.7518-.3113-1.0521-.0335l-.0008.0006-.0048.0042-.0096.0079c-.018.0147-.0519.0412-.1023.0758-.1007.069-.2677.1707-.5065.2757-.4751.2088-1.2474.4366-2.367.4366s-1.8919-.2278-2.36695-.4366c-.2388-.105-.40584-.2067-.50656-.2757-.03576-.0245-.06321-.045-.08257-.0601-.00787-.0061-.01453-.0114-.01973-.0157-.00768-.0062-.01247-.0104-.01442-.0121-.3003-.2784-.76957-.2645-1.05287.0329Z" fill="#7fe870"/></g></g><g transform="translate(4.075985 3.51392)"><rect width="100" height="100" rx="0" ry="0" transform="translate(95.924021 16.808733)" fill="#fff" stroke="#000" stroke-width="3" stroke-linejoin="round"/><path d="M21.583831,15.695409v-12.370935c0-1.211871-1.089547-2.132845-2.284552-1.931034L8.528211,3.212553c-.942393.159157-1.632253.975299-1.632253,1.931024v8.716836c-.31297-.080489-.641077-.123377-.979192-.123377C3.753595,13.737036,2,15.490661,2,17.653782s1.753595,3.916746,3.916766,3.916746s3.916766-1.753625,3.916766-3.916746v-11.682518L18.646256,4.4829v7.41914c-.31295-.080489-.641077-.123377-.979191-.123377-2.163132,0-3.916767,1.753625-3.916767,3.916746s1.753635,3.916746,3.916767,3.916746s3.916766-1.753625,3.916766-3.916746Z" transform="matrix(4.701838 0 0 4.701838 89.501981 12.887604)" fill="#2110dd"/></g><g transform="matrix(6.63408 0 0 6.634081 70.39104 97.479592)"><path d="M11.3856,23.789L12,23c.6139.7894.615.7885.615.7885l.0019-.0014.0062-.0049.0219-.0172c.0188-.0149.0459-.0363.0808-.0642.0696-.0557.1703-.1371.2975-.2421.2543-.2099.6152-.5147,1.0473-.8988.8628-.7669,2.0161-1.8558,3.1727-3.1409c1.1537-1.2819,2.3298-2.78,3.222-4.3662C21.3524,13.4758,22,11.7393,22,10c0-2.65216-1.0536-5.1957-2.9289-7.07107C17.1957,1.05357,14.6522,0,12,0s-5.1957,1.05357-7.07107,2.92893C3.05357,4.8043,2,7.34784,2,10c0,1.7393.64762,3.4758,1.53467,5.0528.89226,1.5862,2.06836,3.0843,3.22204,4.3662c1.15658,1.2851,2.30991,2.374,3.17268,3.1409.43211.3841.79301.6889,1.04731.8988.1272.105.2279.1864.2975.2421.0349.0279.062.0493.0808.0642l.0219.0172.0062.0049.0025.0019Z" clip-rule="evenodd" fill="#fff" fill-rule="evenodd"/><path d="M11.3856,23.789c0,0,.0005.0004.6144-.789l.6139.7894c-.3611.2808-.8672.2805-1.2283-.0004Z" fill="#fea051"/><path d="M12,6C9.79086,6,8,7.79086,8,10s1.79086,4,4,4s4-1.7909,4-4-1.7909-4-4-4Zm-2,4c0-1.10457.8954-2,2-2s2,.89543,2,2-.8954,2-2,2-2-.8954-2-2Z" clip-rule="evenodd" fill="#fea150" fill-rule="evenodd"/><path d="M11.3856,23.789L12,23c.6139.7894.615.7885.615.7885l.0019-.0014.0062-.0049.0219-.0172c.0188-.0149.0459-.0363.0808-.0642.0696-.0557.1703-.1371.2975-.2421.2543-.2099.6152-.5147,1.0473-.8988.8628-.7669,2.0161-1.8558,3.1727-3.1409c1.1537-1.2819,2.3298-2.78,3.222-4.3662C21.3524,13.4758,22,11.7393,22,10c0-2.65216-1.0536-5.1957-2.9289-7.07107C17.1957,1.05357,14.6522,0,12,0s-5.1957,1.05357-7.07107,2.92893C3.05357,4.8043,2,7.34784,2,10c0,1.7393.64762,3.4758,1.53467,5.0528.89226,1.5862,2.06836,3.0843,3.22204,4.3662c1.15658,1.2851,2.30991,2.374,3.17268,3.1409.43211.3841.79301.6889,1.04731.8988.1272.105.2279.1864.2975.2421.0349.0279.062.0493.0808.0642l.0219.0172.0062.0049.0025.0019ZM6.34315,4.34315C7.84344,2.84285,9.87827,2,12,2s4.1566.84285,5.6569,2.34315s2.3431,3.53512,2.3431,5.65685c0,1.2607-.4774,2.6492-1.2778,4.0722-.7953,1.4138-1.8692,2.7907-2.9655,4.0088-1.0934,1.2149-2.1901,2.251-3.0148,2.9841-.2843.2527-.5354.4686-.7419.6427-.2065-.1741-.4576-.39-.7419-.6427-.8247-.7331-1.92139-1.7692-3.01481-2.9841-1.09632-1.2181-2.17022-2.595-2.96546-4.0088C4.47738,12.6492,4,11.2607,4,10c0-2.12173.84285-4.15656,2.34315-5.65685Z" clip-rule="evenodd" fill="#ffa050" fill-rule="evenodd"/></g></svg>
